<?xml version="1.0" standalone="no"?>
<!DOCTYPE svg PUBLIC "-//W3C//DTD SVG 20010904//EN"
 "http://www.w3.org/TR/2001/REC-SVG-20010904/DTD/svg10.dtd">
<svg version="1.0" xmlns="http://www.w3.org/2000/svg"
 width="1595.000000pt" height="532.000000pt" viewBox="0 0 1595.000000 532.000000"
 preserveAspectRatio="xMidYMid meet">

<g transform="translate(0.000000,532.000000) scale(0.100000,-0.100000)"
fill="#000000" stroke="none">
<path d="M7610 4015 c0 -256 0 -468 0 -472 0 -5 28 -8 63 -8 l62 0 0 470 0
470 -62 3 -63 3 0 -466z"/>
<path d="M7290 4000 l0 -270 65 0 65 0 0 270 0 270 -65 0 -65 0 0 -270z"/>
<path d="M6585 4128 c-3 -13 -5 -59 -3 -103 l3 -80 65 0 65 0 0 100 0 100 -62
3 c-58 3 -63 1 -68 -20z"/>
<path d="M7020 4005 l0 -66 63 3 62 3 0 60 0 60 -62 3 -63 3 0 -66z"/>
<path d="M6588 3828 c-2 -2 -5 -250 -8 -553 l-5 -550 -32 -3 c-20 -2 -40 -13
-53 -29 -19 -25 -20 -39 -20 -375 l0 -349 25 -25 24 -24 1450 2 c1377 3 1451
4 1468 21 17 16 18 45 18 377 0 331 -1 361 -18 377 -15 15 -42 19 -175 23
l-157 5 -5 118 c-5 110 -7 120 -29 138 -23 18 -55 19 -1110 19 -838 -1 -1090
-3 -1102 -13 -31 -24 -39 -56 -39 -162 l0 -106 -47 3 -48 3 -5 550 -5 550 -62
3 c-35 2 -64 2 -65 0z m2380 -1017 c2 -25 1 -55 -3 -68 l-5 -23 -998 2 -997 3
-3 68 -3 67 1003 -2 1003 -3 3 -44z m350 -488 l-3 -268 -1344 -3 c-985 -1
-1347 1 -1357 9 -11 9 -14 62 -14 254 0 134 3 250 6 259 6 14 135 16 1360 16
l1354 0 -2 -267z"/>
<path d="M6894 2366 c-3 -7 -4 -38 -2 -67 l3 -54 533 -3 533 -2 -3 67 -3 68
-528 3 c-441 2 -528 0 -533 -12z"/>
<path d="M8164 2366 c-3 -7 -4 -38 -2 -67 l3 -54 85 0 85 0 3 59 c2 41 -1 62
-10 67 -23 15 -158 11 -164 -5z"/>
<path d="M8554 2366 c-3 -7 -4 -38 -2 -67 l3 -54 65 -3 c105 -5 110 -2 110 67
0 69 -2 71 -101 71 -50 0 -71 -4 -75 -14z"/>
<path d="M8923 2374 c-15 -6 -18 -101 -4 -122 5 -9 30 -12 87 -10 l79 3 0 65
0 65 -75 2 c-41 1 -81 -1 -87 -3z"/>
<path d="M9443 1466 c-70 -17 -99 -38 -113 -81 -18 -53 1 -99 54 -130 34 -20
65 -27 166 -36 119 -11 150 -20 150 -41 0 -21 -75 -40 -147 -36 -64 3 -76 7
-98 31 -22 22 -34 27 -76 27 -61 0 -69 -14 -38 -70 34 -60 90 -83 210 -88 168
-7 256 33 266 121 7 57 -11 89 -65 116 -38 19 -162 41 -232 41 -48 0 -70 8
-70 26 0 20 78 37 145 31 49 -5 64 -10 80 -31 18 -22 29 -26 73 -26 49 0 52 1
52 26 0 41 -31 83 -78 106 -55 26 -202 34 -279 14z"/>
<path d="M5527 1463 c-4 -3 -7 -98 -7 -209 l0 -204 24 -6 c13 -3 38 -4 57 -2
l34 3 5 143 5 143 31 -33 c17 -18 70 -81 117 -139 48 -59 94 -110 103 -113 29
-11 91 -6 103 8 8 9 11 74 9 212 l-3 199 -55 0 -55 0 -3 -117 c-1 -65 -6 -118
-11 -118 -4 0 -45 46 -91 103 -113 139 -110 137 -189 137 -37 0 -71 -3 -74 -7z"/>
<path d="M6213 1464 c-15 -7 -18 -359 -4 -397 l11 -27 184 0 c101 0 191 3 200
6 11 4 16 19 16 50 l0 44 -138 0 c-145 0 -162 5 -162 46 0 31 15 34 151 34
l119 0 0 40 0 40 -119 0 c-132 0 -151 4 -151 30 0 33 24 39 161 42 l134 3 0
45 0 45 -195 2 c-107 1 -200 -1 -207 -3z"/>
<path d="M6787 1464 c-4 -4 -7 -27 -7 -51 l0 -43 80 0 80 0 0 -152 c0 -84 4
-159 9 -166 5 -9 25 -12 57 -10 l49 3 2 140 c4 198 -3 185 94 185 l80 0 -3 48
-3 47 -216 3 c-118 1 -218 -1 -222 -4z"/>
<path d="M7405 1458 c-3 -7 -4 -103 -3 -213 l3 -200 49 -3 c58 -4 66 4 66 70
0 56 -1 56 137 60 74 2 97 7 120 24 83 61 79 198 -7 248 -31 18 -56 21 -197
25 -132 2 -164 0 -168 -11z m282 -94 c25 -7 35 -37 23 -70 -9 -23 -14 -24
-100 -24 l-90 0 0 50 0 50 73 0 c39 0 82 -3 94 -6z"/>
<path d="M8126 1463 c-6 -6 -86 -171 -86 -178 0 -2 -20 -47 -45 -100 -25 -53
-47 -107 -48 -119 -2 -19 3 -21 53 -21 47 0 56 3 66 24 7 13 18 28 26 32 7 5
68 9 135 9 l123 0 17 -27 c25 -39 32 -43 86 -43 56 0 59 11 23 86 -13 27 -47
101 -76 164 -28 63 -59 130 -67 148 l-15 32 -92 0 c-51 0 -96 -3 -100 -7z
m124 -119 c14 -25 23 -46 57 -131 4 -10 -17 -13 -86 -13 -50 0 -91 2 -91 4 0
19 83 177 92 174 7 -3 19 -18 28 -34z"/>
<path d="M8647 1463 c-11 -11 -8 -228 4 -284 21 -98 91 -139 237 -139 104 0
150 12 193 47 51 43 59 75 59 238 l0 146 -57 -3 -58 -3 -2 -125 c-2 -69 -5
-135 -8 -147 -8 -34 -55 -53 -129 -53 -54 0 -70 4 -93 24 -28 24 -28 25 -30
156 -2 72 -5 136 -8 141 -7 10 -98 12 -108 2z"/>
<path d="M10007 1464 c-9 -9 -9 -386 -1 -408 5 -14 33 -16 204 -16 218 0 210
-3 210 66 l0 33 -142 3 -143 3 -9 28 c-15 41 1 47 142 47 l122 0 0 40 0 40
-122 0 c-126 0 -144 4 -142 30 1 8 2 21 3 27 1 9 40 13 144 15 l142 3 0 45 0
45 -201 3 c-110 1 -203 -1 -207 -4z"/>
</g>
</svg>
